<svg xmlns="http://www.w3.org/2000/svg" width="30" height="30" viewBox="0 0 30 30">
    <g fill="#3A3A3A" fill-rule="evenodd">
        <path d="M15.705 5.162c-3.203 0-3.583.013-4.848.069-1.17.055-1.805.25-2.23.414-.56.219-.96.479-1.378.899a3.7 3.7 0 0 0-.898 1.379c-.164.424-.36 1.058-.414 2.229-.057 1.265-.07 1.644-.07 4.848 0 3.204.013 3.584.07 4.85.054 1.169.25 1.804.414 2.227.217.56.478.96.898 1.38.419.42.819.68 1.379.897.424.165 1.059.36 2.229.413 1.265.059 1.644.072 4.848.072 3.205 0 3.584-.013 4.849-.072 1.17-.052 1.805-.248 2.229-.413.56-.216.96-.477 1.379-.897.42-.42.68-.82.897-1.38.165-.423.36-1.058.415-2.227.057-1.266.07-1.646.07-4.85 0-3.204-.013-3.583-.07-4.848-.054-1.171-.25-1.805-.415-2.23a3.686 3.686 0 0 0-.897-1.378 3.727 3.727 0 0 0-1.38-.9c-.423-.163-1.058-.358-2.228-.413-1.265-.056-1.645-.07-4.85-.07m0-2.161c3.26 0 3.669.015 4.949.073 1.277.058 2.15.26 2.912.558.79.306 1.459.717 2.126 1.384a5.878 5.878 0 0 1 1.384 2.125c.297.764.5 1.636.558 2.914.059 1.279.072 1.687.072 4.946 0 3.26-.013 3.668-.072 4.948-.058 1.277-.261 2.15-.558 2.913a5.894 5.894 0 0 1-1.384 2.125 5.881 5.881 0 0 1-2.126 1.384c-.762.297-1.635.5-2.912.558-1.28.058-1.688.072-4.948.072-3.26 0-3.667-.014-4.947-.072-1.277-.058-2.15-.261-2.912-.558a5.881 5.881 0 0 1-2.126-1.384 5.881 5.881 0 0 1-1.384-2.125c-.297-.763-.5-1.636-.558-2.913-.06-1.28-.073-1.688-.073-4.948 0-3.26.014-3.667.073-4.946.058-1.278.26-2.15.558-2.914A5.865 5.865 0 0 1 5.72 5.015 5.868 5.868 0 0 1 7.846 3.63c.762-.298 1.635-.5 2.912-.558C12.038 3.015 12.446 3 15.705 3"/>
        <path d="M15.705 8.837a6.162 6.162 0 1 1 0 12.324 6.162 6.162 0 0 1 0-12.324m0 10.163a4 4 0 0 0 0-8 4 4 0 0 0 0 8M7.86 8.594a1.44 1.44 0 1 0 2.88 0 1.44 1.44 0 0 0-2.88 0"/>
    </g>
</svg>
