<svg xmlns="http://www.w3.org/2000/svg" width="30" height="30" viewBox="0 0 30 30">
    <path fill="#3A3A3A" fill-rule="evenodd" d="M13.373 18.873C12.69 22.178 11.86 25.346 9.39 27c-.763-4.994 1.117-8.744 1.992-12.727-1.488-2.314.18-6.974 3.32-5.826 3.864 1.413-3.348 8.608 1.493 9.508 5.056.938 7.119-8.102 3.986-11.04-4.53-4.245-13.184-.098-12.12 5.979.259 1.485 1.92 1.937.664 3.988-2.898-.595-3.762-2.706-3.653-5.522.18-4.606 4.483-7.832 8.8-8.28 5.459-.563 10.582 1.853 11.288 6.595.797 5.35-2.462 11.149-8.3 10.732-1.583-.113-2.245-.838-3.486-1.534"/>
</svg>
