<svg width="30" height="30" viewBox="0 0 30 30" fill="none" xmlns="http://www.w3.org/2000/svg"><rect width="30" height="30" fill="white"/><g clip-path="url(#clip0_2001_10191)"><path fill-rule="evenodd" clip-rule="evenodd" d="M15.1927 11.0549V15.2096H12.7444C10.4282 15.2096 8.5508 17.0657 8.5508 19.3555C8.5508 21.6454 10.4282 23.5011 12.7444 23.5011C15.0605 23.5011 16.9379 21.645 16.9379 19.3555H16.9377V2H21.4884L27.0001 7.67729L23.7167 10.7928L21.4884 8.49753V19.3555C21.4884 24.1295 17.5735 28 12.7444 28C7.91527 28 4 24.1295 4 19.3555C4 14.5816 7.91494 10.7108 12.7443 10.7108H15.1927V11.0549H15.1927Z" fill="#3A3A3A"/></g><defs><clipPath id="clip0_2001_10191"><rect width="23" height="26" fill="white" transform="translate(4 2)"/></clipPath></defs></svg>