<svg xmlns="http://www.w3.org/2000/svg" width="30" height="30" viewBox="0 0 30 30">
    <path fill="#3A3A3A" fill-rule="evenodd" d="M27.08 7.872c-.87.389-1.603.4-2.381.018 1.002-.6 1.05-1.023 1.41-2.158a9.76 9.76 0 0 1-3.086 1.18 4.862 4.862 0 0 0-8.279 4.433A13.793 13.793 0 0 1 4.73 6.265a4.856 4.856 0 0 0 1.504 6.488 4.84 4.84 0 0 1-2.202-.606v.06a4.863 4.863 0 0 0 3.897 4.766 4.899 4.899 0 0 1-2.195.084 4.865 4.865 0 0 0 4.54 3.373 9.763 9.763 0 0 1-7.193 2.01 13.756 13.756 0 0 0 7.447 2.184c8.94 0 13.824-7.403 13.824-13.825 0-.21-.003-.418-.012-.628.948-.686 2.088-1.324 2.74-2.3"/>
</svg>
